<svg width="240" height="240" viewBox="0 0 240 240" xmlns="http://www.w3.org/2000/svg">
<defs>
  <radialGradient id="bg" cx="50%" cy="35%" r="70%">
    <stop offset="0%" stop-color="#6dff84" stop-opacity="0.5"/>
    <stop offset="100%" stop-color="#031a0a" stop-opacity="0"/>
  </radialGradient>
</defs>
<rect width="240" height="240" fill="#04150a"/>
<circle cx="120" cy="120" r="108" fill="url(#bg)"/>
<circle cx="120" cy="120" r="102" fill="none" stroke="#0b3a1d" stroke-width="6"/>
<!-- simple cartoony thumbs-up silhouette (generic, not Vault Boy) -->
<path d="M100 150
         c-8 0 -15 -7 -15 -15 v-30 c0 -8 7 -15 15 -15 h20
         c3 -14 7 -25 12 -30 c7 -7 18 -5 22 2 c3 6 1 13 -2 19
         c-2 3 -3 7 -3 11 v6 h27 c9 0 15 9 12 17 l-11 30
         c-2 6 -8 10 -14 10 z" fill="#c7ffb0" stroke="#6dff84" stroke-width="3"/>
<!-- simple circle head -->
<circle cx="94" cy="86" r="12" fill="#c7ffb0" stroke="#6dff84" stroke-width="3"/>
</svg>